<svg width="40" height="40" viewBox="0 0 40 40" fill="none" xmlns="http://www.w3.org/2000/svg" xmlns:xlink="http://www.w3.org/1999/xlink">
<path d="M36.492,5.364C37.36,2.964 35.034,0.639 32.635,1.509L3.31,12.115C0.902,12.986 0.611,16.271 2.826,17.555L12.187,22.974L20.546,14.615C20.924,14.249 21.431,14.047 21.958,14.051C22.484,14.056 22.988,14.267 23.36,14.639C23.733,15.012 23.944,15.515 23.948,16.042C23.953,16.568 23.75,17.075 23.385,17.454L15.026,25.813L20.447,35.175C21.728,37.39 25.013,37.096 25.885,34.691L36.492,5.364Z" transform="rotate(11.214 19 19)" fill="#FFFFFF"/>
<path d="M36.492,5.364C37.36,2.964 35.034,0.639 32.635,1.509L3.31,12.115C0.902,12.986 0.611,16.271 2.826,17.555L12.187,22.974L20.546,14.615C20.924,14.249 21.431,14.047 21.958,14.051C22.484,14.056 22.988,14.267 23.36,14.639C23.733,15.012 23.944,15.515 23.948,16.042C23.953,16.568 23.75,17.075 23.385,17.454L15.026,25.813L20.447,35.175C21.728,37.39 25.013,37.096 25.885,34.691L36.492,5.364Z" transform="rotate(11.214 19 19)" fill="#FFFFFF"/>
</svg>
