<svg width="48" height="38" viewBox="0 0 48 38" fill="none" xmlns="http://www.w3.org/2000/svg" xmlns:xlink="http://www.w3.org/1999/xlink">
<path d="M6.616,22.941C7.351,21.583 7.126,19.913 6.054,18.8C4.456,17.137 3.602,15.141 3.602,13.063C3.602,8.35 8.386,3.563 15.601,3.563C22.816,3.563 27.601,8.35 27.601,13.063C27.601,17.775 22.816,22.562 15.601,22.562C14.619,22.562 13.666,22.466 12.766,22.295C11.986,22.147 11.176,22.251 10.464,22.607C10.156,22.763 9.841,22.911 9.519,23.052C8.319,23.587 7.051,24.054 5.776,24.388C5.986,24.047 6.181,23.713 6.369,23.379C6.451,23.238 6.534,23.089 6.609,22.941L6.616,22.941ZM0.002,13.063C0.002,16.165 1.292,19.007 3.444,21.249C3.377,21.375 3.302,21.509 3.234,21.627C2.462,22.993 1.562,24.336 0.489,25.494C-0.006,26.014 -0.133,26.771 0.144,27.416C0.437,28.077 1.082,28.5 1.802,28.5C5.026,28.5 8.289,27.513 11.004,26.296C11.364,26.132 11.724,25.962 12.069,25.791C13.201,26.014 14.386,26.125 15.601,26.125C24.218,26.125 31.201,20.277 31.201,13.063C31.201,5.848 24.218,0 15.601,0C6.984,0 0.002,5.848 0.002,13.063ZM32.401,35.625C33.615,35.625 34.793,35.506 35.933,35.291C36.278,35.462 36.638,35.632 36.998,35.796C39.713,37.013 42.975,38 46.2,38C46.92,38 47.565,37.577 47.85,36.924C48.135,36.271 48,35.514 47.505,35.002C46.44,33.844 45.54,32.5 44.76,31.135C44.693,31.009 44.618,30.882 44.55,30.756C46.71,28.507 48,25.665 48,22.562C48,15.556 41.408,9.834 33.136,9.515C33.443,10.643 33.6,11.83 33.6,13.063L33.6,13.107C40.14,13.604 44.4,18.117 44.4,22.562C44.4,24.641 43.545,26.637 41.948,28.292C40.875,29.405 40.65,31.083 41.385,32.434C41.468,32.582 41.55,32.73 41.625,32.871C41.813,33.205 42.015,33.539 42.218,33.881C40.943,33.547 39.675,33.087 38.475,32.545C38.153,32.404 37.838,32.255 37.53,32.1C36.818,31.743 36.008,31.639 35.228,31.788C34.32,31.966 33.376,32.055 32.393,32.055C27.766,32.055 24.143,30.088 22.133,27.431C20.933,27.832 19.673,28.129 18.384,28.307C20.926,32.641 26.251,35.625 32.401,35.625Z" fill="#FFFFFF"/>
</svg>
