<svg width="22" height="22" viewBox="0 0 22 22" fill="none" xmlns="http://www.w3.org/2000/svg" xmlns:xlink="http://www.w3.org/1999/xlink">
<path d="M15.533,0.053C15.747,0.143 15.902,0.337 15.945,0.564L16.8,5.2L21.436,6.051C21.663,6.094 21.857,6.248 21.947,6.463C22.037,6.678 22.011,6.923 21.878,7.116L19.202,11L21.878,14.88C22.011,15.073 22.037,15.318 21.947,15.533C21.857,15.747 21.663,15.902 21.436,15.945L16.8,16.8L15.945,21.436C15.902,21.663 15.747,21.857 15.533,21.947C15.318,22.037 15.073,22.011 14.88,21.878L11,19.202L7.12,21.878C6.927,22.011 6.682,22.037 6.467,21.947C6.253,21.857 6.098,21.663 6.055,21.436L5.2,16.8L0.564,15.945C0.337,15.902 0.143,15.747 0.053,15.533C-0.037,15.318 -0.011,15.073 0.122,14.88L2.798,11L0.122,7.12C-0.011,6.927 -0.037,6.682 0.053,6.467C0.143,6.253 0.337,6.098 0.564,6.055L5.2,5.2L6.055,0.564C6.098,0.337 6.253,0.143 6.467,0.053C6.682,-0.037 6.927,-0.011 7.12,0.122L11,2.798L14.88,0.122C15.073,-0.011 15.318,-0.037 15.533,0.053ZM6.876,11C6.876,9.906 7.31,8.857 8.084,8.084C8.857,7.31 9.906,6.876 11,6.876C12.094,6.876 13.143,7.31 13.916,8.084C14.69,8.857 15.124,9.906 15.124,11C15.124,12.094 14.69,13.143 13.916,13.916C13.143,14.69 12.094,15.124 11,15.124C9.906,15.124 8.857,14.69 8.084,13.916C7.31,13.143 6.876,12.094 6.876,11ZM16.499,11C16.499,9.542 15.92,8.143 14.889,7.111C13.857,6.08 12.458,5.501 11,5.501C9.542,5.501 8.143,6.08 7.111,7.111C6.08,8.143 5.501,9.542 5.501,11C5.501,12.458 6.08,13.857 7.111,14.889C8.143,15.92 9.542,16.499 11,16.499C12.458,16.499 13.857,15.92 14.889,14.889C15.92,13.857 16.499,12.458 16.499,11Z" fill="#FFFFFF"/>
</svg>
