<svg width="44" height="40" viewBox="0 0 44 40" fill="none" xmlns="http://www.w3.org/2000/svg" xmlns:xlink="http://www.w3.org/1999/xlink">
<path d="M26.933,0.081C29.167,0.528 30.62,2.702 30.173,4.936L29.975,5.916C29.52,8.21 28.677,10.393 27.5,12.378L39.875,12.378C42.152,12.378 44,14.226 44,16.503C44,18.093 43.098,19.477 41.774,20.164C42.711,20.921 43.312,22.081 43.312,23.378C43.312,25.389 41.869,27.065 39.97,27.426C40.348,28.053 40.562,28.784 40.562,29.566C40.562,31.396 39.368,32.952 37.718,33.485C37.778,33.768 37.812,34.069 37.812,34.378C37.812,36.656 35.965,38.503 33.688,38.503L25.309,38.503C23.676,38.503 22.086,38.022 20.728,37.12L17.42,34.911C15.125,33.382 13.75,30.803 13.75,28.045L13.75,18.489C13.75,15.979 14.893,13.616 16.844,12.043L17.48,11.536C19.757,9.714 21.312,7.153 21.88,4.3L22.077,3.321C22.524,1.086 24.698,-0.366 26.933,0.081ZM2.75,13.753L8.25,13.753C9.771,13.753 11,14.982 11,16.503L11,35.753C11,37.275 9.771,38.503 8.25,38.503L2.75,38.503C1.229,38.503 0,37.275 0,35.753L0,16.503C0,14.982 1.229,13.753 2.75,13.753Z" fill="#8579B2"/>
</svg>
