<svg width="28" height="28" viewBox="0 0 28 28" fill="none" xmlns="http://www.w3.org/2000/svg" xmlns:xlink="http://www.w3.org/1999/xlink">
<path d="M15.171,22.329C15.327,22.485 15.451,22.671 15.536,22.875C15.621,23.079 15.665,23.298 15.665,23.519C15.665,23.74 15.621,23.959 15.536,24.163C15.451,24.367 15.327,24.552 15.171,24.708L14.339,25.54C12.764,27.115 10.628,28 8.4,28C6.172,28 4.036,27.115 2.46,25.54C0.885,23.964 0,21.828 0,19.6C0,17.372 0.885,15.236 2.46,13.661L5.836,10.286C7.349,8.769 9.386,7.888 11.528,7.823C13.67,7.759 15.756,8.516 17.358,9.939C17.524,10.086 17.658,10.265 17.755,10.464C17.851,10.663 17.908,10.879 17.921,11.1C17.934,11.321 17.903,11.542 17.831,11.751C17.758,11.96 17.645,12.153 17.498,12.319C17.351,12.484 17.173,12.619 16.974,12.715C16.775,12.812 16.558,12.868 16.337,12.881C16.117,12.894 15.895,12.864 15.686,12.791C15.477,12.719 15.284,12.606 15.119,12.458C14.158,11.605 12.908,11.151 11.623,11.19C10.339,11.228 9.118,11.755 8.209,12.664L4.837,16.034C3.892,16.979 3.361,18.261 3.361,19.597C3.361,20.934 3.892,22.216 4.837,23.161C5.782,24.106 7.063,24.636 8.4,24.636C9.736,24.636 11.018,24.106 11.963,23.161L12.794,22.329C12.95,22.173 13.135,22.049 13.339,21.965C13.543,21.88 13.762,21.837 13.982,21.837C14.203,21.837 14.422,21.88 14.626,21.965C14.829,22.049 15.015,22.173 15.171,22.329ZM25.538,2.456C23.962,0.883 21.826,0 19.599,0C17.372,0 15.236,0.883 13.659,2.456L12.828,3.287C12.512,3.603 12.335,4.031 12.335,4.477C12.335,4.923 12.512,5.351 12.828,5.667C13.143,5.982 13.571,6.159 14.017,6.159C14.464,6.159 14.892,5.982 15.207,5.667L16.038,4.835C16.983,3.89 18.265,3.359 19.602,3.359C20.938,3.359 22.22,3.89 23.165,4.835C24.11,5.78 24.641,7.062 24.641,8.398C24.641,9.735 24.11,11.017 23.165,11.962L19.79,15.337C18.881,16.246 17.659,16.773 16.375,16.81C15.09,16.847 13.84,16.392 12.88,15.537C12.714,15.39 12.521,15.277 12.312,15.205C12.103,15.132 11.882,15.102 11.661,15.115C11.44,15.128 11.224,15.184 11.025,15.281C10.826,15.377 10.647,15.512 10.5,15.677C10.353,15.843 10.24,16.036 10.168,16.245C10.095,16.454 10.065,16.675 10.078,16.896C10.091,17.117 10.147,17.333 10.244,17.532C10.34,17.731 10.475,17.91 10.64,18.057C12.241,19.48 14.326,20.237 16.467,20.174C18.608,20.111 20.644,19.232 22.158,17.716L25.534,14.342C27.109,12.766 27.994,10.629 27.994,8.401C27.995,6.173 27.112,4.036 25.538,2.459L25.538,2.456Z" fill="#8579B2"/>
</svg>
