<svg width="36" height="36" viewBox="0 0 36 36" fill="none" xmlns="http://www.w3.org/2000/svg" xmlns:xlink="http://www.w3.org/1999/xlink">
<path d="M34.492,3.364C35.36,0.964 33.034,-1.361 30.635,-0.491L1.31,10.115C-1.098,10.986 -1.389,14.271 0.826,15.555L10.187,20.974L18.546,12.615C18.924,12.249 19.431,12.047 19.958,12.051C20.484,12.056 20.988,12.267 21.36,12.639C21.733,13.012 21.944,13.515 21.948,14.042C21.953,14.568 21.75,15.075 21.385,15.454L13.026,23.813L18.447,33.175C19.728,35.39 23.013,35.096 23.885,32.691L34.492,3.364Z" transform="rotate(11.214 17 17)" fill="#FFFFFF"/>
</svg>
