<svg width="30" height="28" viewBox="0 0 30 28" fill="none" xmlns="http://www.w3.org/2000/svg" xmlns:xlink="http://www.w3.org/1999/xlink">
<path d="M14.918,28C11.067,28 7.785,26.636 5.071,23.908C2.357,21.18 1,17.882 1,14.012C1,10.142 2.357,6.839 5.071,4.104C7.785,1.368 11.067,0 14.918,0C17.372,0 19.531,0.497 21.395,1.492C23.258,2.486 24.866,3.868 26.218,5.637L26.218,1.398C26.218,0.997 26.347,0.664 26.603,0.398C26.859,0.133 27.195,0 27.609,0C28.008,0 28.339,0.133 28.604,0.398C28.868,0.664 29,0.997 29,1.398L29,9.851C29,10.324 28.839,10.719 28.516,11.035C28.194,11.351 27.797,11.509 27.327,11.509L18.893,11.509C18.501,11.509 18.175,11.376 17.915,11.111C17.655,10.845 17.525,10.512 17.525,10.111C17.525,9.717 17.658,9.39 17.922,9.129C18.186,8.867 18.518,8.737 18.916,8.737L24.429,8.737C23.358,7.125 22.034,5.823 20.457,4.83C18.88,3.837 17.034,3.34 14.918,3.34C11.954,3.34 9.443,4.374 7.386,6.442C5.328,8.509 4.3,11.033 4.3,14.012C4.3,16.991 5.328,19.514 7.386,21.582C9.443,23.65 11.954,24.684 14.918,24.684C16.875,24.684 18.709,24.18 20.419,23.172C22.13,22.164 23.438,20.796 24.342,19.068C24.569,18.68 24.895,18.398 25.319,18.222C25.743,18.046 26.161,18.051 26.573,18.238C27.004,18.409 27.299,18.695 27.457,19.095C27.615,19.495 27.601,19.894 27.415,20.292C26.254,22.652 24.552,24.526 22.309,25.916C20.067,27.305 17.603,28 14.918,28Z" fill="#8579B2"/>
</svg>
